<?xml version="1.0" encoding="UTF-8"?>
<svg xmlns="http://www.w3.org/2000/svg" viewBox="0 0 48 48">
  <defs>
    <linearGradient id="g" x1="0" y1="0" x2="1" y2="1">
      <stop offset="0%" stop-color="#22c55e"/>
      <stop offset="100%" stop-color="#16a34a"/>
    </linearGradient>
  </defs>
  <!-- Cloud -->
  <path d="M34 19a8 8 0 0 0-15.2-3.2A7 7 0 0 0 10 22a7 7 0 0 0 1 13h21a7 7 0 0 0 2-13.7c0-.1 0-.2 0-.3z" fill="url(#g)"/>
  <!-- Bucket -->
  <path d="M30 22h-12l2 16h8l2-16z" fill="#0b0" opacity="0.15"/>
  <path d="M18 22h12m-11 3h10m-9 3h8" stroke="#0a0" stroke-opacity="0.6" stroke-width="1.4" stroke-linecap="round"/>
  <!-- Broom -->
  <path d="M36 30l-8 8" stroke="#f59e0b" stroke-width="2.2" stroke-linecap="round"/>
  <path d="M28 38l-2 4 4-2z" fill="#f59e0b"/>
</svg>

